<?xml version="1.0" encoding="UTF-8" standalone="no"?>
<svg
   xmlns:dc="http://purl.org/dc/elements/1.1/"
   xmlns:cc="http://creativecommons.org/ns#"
   xmlns:rdf="http://www.w3.org/1999/02/22-rdf-syntax-ns#"
   xmlns:svg="http://www.w3.org/2000/svg"
   xmlns="http://www.w3.org/2000/svg"
   width="35.649181mm"
   height="35.649349mm"
   viewBox="0 0 35.649181 35.649349"
   version="1.1"
   id="svg1916">
  <defs
     id="defs1910" />
  <metadata
     id="metadata1913">
    <rdf:RDF>
      <cc:Work
         rdf:about="">
        <dc:format>image/svg+xml</dc:format>
        <dc:type
           rdf:resource="http://purl.org/dc/dcmitype/StillImage" />
        <dc:title></dc:title>
      </cc:Work>
    </rdf:RDF>
  </metadata>
  <g
     id="layer1"
     transform="translate(-117.38777,-123.10086)">
    <g
       id="g1215"
       transform="matrix(1.9933268,0,0,1.9933268,-311.50248,-15.250449)">
      <circle
         style="fill:#ffffff;stroke:#000000;stroke-width:1;stroke-linecap:round;stroke-linejoin:round;stop-color:#000000"
         id="path1194"
         d="m 229.26391,85.035258 a 8.4447174,8.4447184 0 0 1 -11.81947,-1.494795 8.4447174,8.4447184 0 0 1 1.43741,-11.826587 8.4447174,8.4447184 0 0 1 11.83343,1.379998 8.4447174,8.4447184 0 0 1 -1.32255,11.839983" />
      <g
         id="g1198"
         transform="translate(46.234256,6.3732813)">
        <path
           style="color:#000000;font-style:normal;font-variant:normal;font-weight:normal;font-stretch:normal;font-size:medium;line-height:1.25;font-family:Comfortaa;-inkscape-font-specification:Comfortaa;font-variant-ligatures:normal;font-variant-position:normal;font-variant-caps:normal;font-variant-numeric:normal;font-variant-alternates:normal;font-variant-east-asian:normal;font-feature-settings:normal;font-variation-settings:normal;text-indent:0;text-align:start;text-decoration:none;text-decoration-line:none;text-decoration-style:solid;text-decoration-color:#000000;letter-spacing:0px;word-spacing:0px;text-transform:none;writing-mode:lr-tb;direction:ltr;text-orientation:mixed;dominant-baseline:auto;baseline-shift:baseline;text-anchor:start;white-space:normal;shape-padding:0;shape-margin:0;inline-size:0;clip-rule:nonzero;display:inline;overflow:visible;visibility:visible;isolation:auto;mix-blend-mode:normal;color-interpolation:sRGB;color-interpolation-filters:linearRGB;solid-color:#000000;solid-opacity:1;vector-effect:none;fill:#000000;fill-opacity:1;fill-rule:nonzero;stroke:none;stroke-width:0.264583;stroke-linecap:butt;stroke-linejoin:miter;stroke-miterlimit:4;stroke-dasharray:none;stroke-dashoffset:0;stroke-opacity:1;color-rendering:auto;image-rendering:auto;shape-rendering:auto;text-rendering:auto;enable-background:accumulate;stop-color:#000000"
           d="m 177.87622,78.209439 c -0.16933,0 -0.29633,-0.09172 -0.381,-0.275166 l -2.3495,-4.984734 c -0.0423,-0.09172 -0.0459,-0.183444 -0.0106,-0.275166 0.0353,-0.09172 0.10582,-0.162277 0.21167,-0.211666 0.0988,-0.04939 0.19402,-0.05644 0.28575,-0.02117 0.0917,0.03528 0.16227,0.09878 0.21166,0.1905 l 2.25425,4.878901 h -0.43392 l 2.22249,-4.878901 c 0.0423,-0.09878 0.11289,-0.162277 0.21167,-0.1905 0.10583,-0.03528 0.20814,-0.03175 0.30691,0.01058 0.0988,0.04939 0.16581,0.12347 0.20109,0.222249 0.0353,0.09172 0.0317,0.179916 -0.0106,0.264583 l -2.31774,4.995317 c -0.0847,0.183444 -0.21872,0.275166 -0.40216,0.275166 z"
           id="path1190" />
        <path
           style="fill:#000000;stroke-width:0.999998;stroke-linecap:round;stroke-linejoin:round;stop-color:#000000"
           id="path1192"
           d="m 180.94269,71.063312 c -0.15359,0.266024 -5.98997,0.266024 -6.14356,0 -0.15359,-0.266024 2.7646,-5.320482 3.07178,-5.320482 0.30718,0 3.22537,5.054458 3.07178,5.320482 z" />
      </g>
    </g>
  </g>
</svg>
